<svg width="98" height="75" viewBox="0 0 98 75" fill="none" xmlns="http://www.w3.org/2000/svg">
<circle cx="34.817" cy="39.4219" r="34.817" fill="#1A184B"/>
<g clip-path="url(#clip0_317_2635)">
<path d="M91.1848 2.22418H90.0442V9.5527H91.1848V2.22418Z" fill="#02BE83"/>
<path d="M94.2643 5.30389H86.9358V6.44452H94.2643V5.30389Z" fill="#02BE83"/>
<path d="M32.3569 63.3902H31.2163V70.7187H32.3569V63.3902Z" fill="#02BE83"/>
<path d="M35.4367 66.4699H28.1082V67.6105H35.4367V66.4699Z" fill="#02BE83"/>
<path d="M73.3626 29.8559C73.3626 36.0723 68.0301 41.1196 61.4715 41.1196H59.3043C52.7458 41.1196 47.4133 36.0723 47.4133 29.8559V26.8047C47.4133 20.5883 52.7458 15.5411 59.3043 15.5411H61.4715C68.0301 15.5411 73.3626 20.5883 73.3626 26.8047V29.8559Z" fill="#02BE83"/>
<path d="M56.0819 33.0211C56.9088 33.5629 58.3631 34.1332 59.7319 34.1332C61.7565 34.1332 62.6975 33.1351 62.6975 31.8519C62.6975 30.5402 61.8991 29.7988 59.8745 29.0574C57.137 28.0879 55.8252 26.5766 55.8252 24.7516C55.8252 22.2992 57.8213 20.2746 61.1006 20.2746C62.6405 20.2746 64.0092 20.7023 64.8647 21.2156L64.1803 23.2402C63.5815 22.8695 62.4694 22.3562 61.0721 22.3562C59.4182 22.3562 58.5057 23.2973 58.5057 24.4379C58.5057 25.6926 59.4182 26.2629 61.4143 27.0328C64.0663 28.0308 65.4065 29.3711 65.4065 31.6238C65.4065 34.3043 63.3249 36.2148 59.7034 36.2148C58.0209 36.2148 56.4811 35.7871 55.426 35.1312L56.0819 33.0211Z" fill="white"/>
<path d="M60.9583 18.7918H59.8176V37.8402H60.9583V18.7918Z" fill="white"/>
<path d="M60.3878 46.4235C50.7495 46.4235 42.9077 38.5817 42.9077 28.9719C42.9077 19.3336 50.7495 11.4918 60.3878 11.4918C70.0261 11.4918 77.8679 19.3336 77.8679 28.9719C77.8679 38.5817 70.0261 46.4235 60.3878 46.4235ZM60.3878 12.6324C51.3769 12.6324 44.0769 19.961 44.0769 28.9719C44.0769 37.9828 51.4054 45.2828 60.3878 45.2828C69.3702 45.2828 76.6987 37.9543 76.6987 28.9719C76.7272 19.961 69.3987 12.6324 60.3878 12.6324Z" fill="white"/>
<path d="M61.3002 63.5328H55.1409V64.6735H61.3002V63.5328Z" fill="white"/>
<path d="M65.4636 67.7817H58.905V68.9223H65.4636V67.7817Z" fill="white"/>
<path d="M52.7742 43.629H51.6335V55.2348H52.7742V43.629Z" fill="white"/>
<path d="M69.1421 43.629H68.0015V55.4344H69.1421V43.629Z" fill="white"/>
<path d="M70.5108 61.8789H50.2932V54.6645H70.5108V61.8789ZM51.4338 60.7383H69.3702V55.8051H51.4338V60.7383Z" fill="white"/>
<path d="M60.616 73.3708C55.7684 73.3708 54.5992 69.8633 54.5422 69.7208L54.5137 69.5497V60.7383H66.2906V69.6637C66.2621 69.6922 65.4352 73.3708 60.616 73.3708ZM55.6543 69.4356C55.8254 69.8919 56.9375 72.2016 60.616 72.2016C64.2375 72.2016 65.0645 69.8348 65.15 69.4641V61.879H55.6543V69.4356Z" fill="white"/>
<path d="M51.8461 7.75317L49.2825 1.99634L48.2405 2.46034L50.8041 8.21718L51.8461 7.75317Z" fill="#02BE83"/>
<path d="M39.2195 20.9864L33.2263 19.0385L32.8738 20.1232L38.8669 22.0712L39.2195 20.9864Z" fill="#02BE83"/>
<path d="M41.1966 40.1803L40.626 39.1927L35.1697 42.3456L35.7404 43.3332L41.1966 40.1803Z" fill="#02BE83"/>
<path d="M85.5798 42.4594L80.1223 39.3085L79.552 40.2963L85.0095 43.4472L85.5798 42.4594Z" fill="#02BE83"/>
<path d="M87.9741 20.2502L87.6221 19.1653L81.6277 21.1101L81.9796 22.195L87.9741 20.2502Z" fill="#02BE83"/>
<path d="M61.0437 -0.256592H59.9031V6.58716H61.0437V-0.256592Z" fill="white"/>
<path d="M42.7274 14.1936L37.6411 9.61511L36.878 10.4628L41.9643 15.0413L42.7274 14.1936Z" fill="white"/>
<path d="M36.2112 34.0433L36.092 32.909L29.2859 33.6242L29.4051 34.7585L36.2112 34.0433Z" fill="white"/>
<path d="M46.4662 50.999L45.5437 50.3282L41.5189 55.8635L42.4414 56.5343L46.4662 50.999Z" fill="white"/>
<path d="M79.1685 55.9626L75.1458 50.426L74.223 51.0965L78.2457 56.6331L79.1685 55.9626Z" fill="white"/>
<path d="M91.5073 33.7541L84.7012 33.0389L84.582 34.1732L91.3881 34.8884L91.5073 33.7541Z" fill="white"/>
<path d="M78.9516 15.1418L78.1816 14.2864L83.2859 9.72388L84.0559 10.5793L78.9516 15.1418Z" fill="white"/>
<path d="M72.6877 2.50053L71.6455 2.03687L69.0838 7.79496L70.126 8.25862L72.6877 2.50053Z" fill="#02BE83"/>
</g>
<defs>
<clipPath id="clip0_317_2635">
<rect width="73" height="73" fill="white" transform="translate(25)"/>
</clipPath>
</defs>
</svg>
