<svg width="85" height="77" viewBox="0 0 85 77" fill="none" xmlns="http://www.w3.org/2000/svg">
<circle cx="34.817" cy="35.4219" r="34.817" fill="#1A184B"/>
<g clip-path="url(#clip0_317_2636)">
<path d="M30.483 62.2289C30.0784 62.2289 29.6448 62.1422 29.1244 61.9109C26.8119 60.8992 27.0143 59.1648 27.0432 59.0781L27.0721 58.9336L27.4768 57.9797L28.5463 58.4422L28.1705 59.2805C28.1705 59.4828 28.2862 60.2922 29.587 60.8414C30.5987 61.275 31.1768 60.8992 31.3502 60.7547L33.6627 55.4648L34.7323 55.9273L32.3041 61.4484C32.2463 61.5062 31.6104 62.2289 30.483 62.2289Z" fill="white"/>
<path d="M52.8563 71.9703C52.3938 71.9703 51.8445 71.8836 51.2086 71.5945C49.2141 70.7273 49.3875 69.0508 49.4164 68.993L49.4742 68.8484L51.8445 63.4719L52.9141 63.9344L50.6016 69.2242C50.6016 69.4266 50.6883 70.1203 51.7289 70.5828C53.0297 71.132 53.6656 70.6984 53.8391 70.5539L54.2149 69.7156L55.2844 70.1781L54.793 71.2476C54.7063 71.2476 54.0703 71.9703 52.8563 71.9703Z" fill="white"/>
<path d="M23.1695 60.7258C23.0249 60.7258 22.8515 60.668 22.7648 60.5523C22.5913 60.3789 22.5624 60.1187 22.6492 59.9164L28.6038 46.3305C28.6617 46.2148 28.7484 46.0992 28.864 46.0414L43.057 38.7281C43.346 38.5836 43.6929 38.6992 43.8374 38.9883C43.982 39.2773 43.8663 39.6242 43.5773 39.7687L29.5867 46.9953L24.2679 59.0781L36.2929 54.2219C36.582 54.1062 36.9288 54.2508 37.0445 54.5398C37.1601 54.8289 37.0156 55.1758 36.7265 55.2914L23.4007 60.668C23.314 60.7258 23.2562 60.7258 23.1695 60.7258Z" fill="white"/>
<path d="M56.5562 75.3235C56.296 75.3235 56.0936 75.1789 56.0069 74.9477L50.9194 61.5063C50.8038 61.2172 50.9483 60.8703 51.2663 60.7547C51.5554 60.6391 51.9022 60.7836 52.0179 61.1016L56.614 73.2133L61.9038 61.1016L57.7124 45.9258C57.6257 45.6078 57.7991 45.2899 58.1171 45.2032C58.4351 45.1164 58.753 45.2899 58.8397 45.6078L63.089 60.986C63.1179 61.1016 63.1179 61.2461 63.0601 61.3617L57.1054 74.9477C56.9897 75.2078 56.7874 75.3235 56.5562 75.3235Z" fill="white"/>
<path d="M41.8706 14.0547L41.053 13.2371L35.9635 18.3266L36.7811 19.1442L41.8706 14.0547Z" fill="#02BE83"/>
<path d="M41.891 18.3266L36.8015 13.2371L35.9839 14.0547L41.0734 19.1442L41.891 18.3266Z" fill="#02BE83"/>
<path d="M72.5127 45.9519L71.6951 45.1343L66.6056 50.2238L67.4232 51.0414L72.5127 45.9519Z" fill="#02BE83"/>
<path d="M72.5101 50.2041L67.4214 45.1139L66.6037 45.9314L71.6924 51.0215L72.5101 50.2041Z" fill="#02BE83"/>
<path d="M35.1745 32.453L34.3569 31.6354L29.2675 36.7249L30.0851 37.5425L35.1745 32.453Z" fill="#02BE83"/>
<path d="M35.1544 36.7249L30.0649 31.6354L29.2474 32.453L34.3368 37.5425L35.1544 36.7249Z" fill="#02BE83"/>
<path d="M51.758 62.0554L35.7439 55.0601L53.3767 14.7359L69.3908 21.7312L51.758 62.0554ZM37.2759 54.4531L51.1798 60.5234L67.8876 22.3382L53.9837 16.2679L37.2759 54.4531Z" fill="white"/>
<path d="M57.7702 31.357C57.1053 31.357 56.4405 31.2125 55.8335 30.9523C54.6483 30.432 53.7233 29.4781 53.2608 28.293C52.7983 27.0789 52.8272 25.7781 53.3475 24.593C54.128 22.8297 55.8624 21.7023 57.7991 21.7023C58.4639 21.7023 59.1288 21.8469 59.7358 22.107C60.921 22.6273 61.846 23.5812 62.3085 24.7664C62.771 25.9805 62.742 27.2812 62.2217 28.4664C61.4413 30.2297 59.7069 31.357 57.7702 31.357ZM57.7702 22.8297C56.296 22.8297 54.9663 23.6969 54.3881 25.0266C53.9835 25.9226 53.9835 26.9344 54.3303 27.8594C54.6772 28.7844 55.371 29.507 56.296 29.8828C56.7585 30.0851 57.2499 30.2008 57.7702 30.2008C59.2444 30.2008 60.5741 29.3336 61.1522 28.0039C61.5569 27.1078 61.5569 26.0961 61.21 25.1711C60.8631 24.2461 60.1694 23.5234 59.2444 23.1476C58.7819 22.9453 58.2905 22.8297 57.7702 22.8297Z" fill="white"/>
<path d="M53.0297 42.2258C52.3649 42.2258 51.7 42.0812 51.093 41.8211C48.6359 40.7516 47.5375 37.8898 48.607 35.4328C49.3875 33.6695 51.1219 32.5422 53.0586 32.5422C53.7234 32.5422 54.3883 32.6867 54.9953 32.9469C56.1805 33.4672 57.1055 34.4211 57.568 35.6062C58.0305 36.8203 58.0016 38.1211 57.4813 39.3062C56.7008 41.0695 54.9664 42.2258 53.0297 42.2258ZM53.0297 33.6984C51.5555 33.6984 50.2258 34.5656 49.6477 35.8953C48.8383 37.7453 49.6766 39.9422 51.5555 40.7516C52.018 40.9539 52.5094 41.0695 53.0297 41.0695C54.5039 41.0695 55.8336 40.2023 56.4117 38.8726C56.8164 37.9766 56.8164 36.9648 56.4695 36.0398C56.1227 35.1148 55.4289 34.3922 54.5039 34.0164C54.0414 33.7851 53.55 33.6984 53.0297 33.6984Z" fill="white"/>
<path d="M40.5524 56.7089L39.4929 56.2458L36.1935 63.7945L37.253 64.2576L40.5524 56.7089Z" fill="white"/>
<path d="M44.4367 58.4092L43.3772 57.9462L38.3875 69.362L39.447 69.8251L44.4367 58.4092Z" fill="white"/>
<path d="M50.1054 60.8912L49.0459 60.4282L46.881 65.3812L47.9405 65.8443L50.1054 60.8912Z" fill="white"/>
<path d="M28.1361 64.1949L27.0767 63.7318L24.9118 68.6848L25.9712 69.1479L28.1361 64.1949Z" fill="url(#paint0_linear_317_2636)"/>
<path d="M45.5321 72.4862L44.4727 72.0231L42.3078 76.9762L43.3672 77.4392L45.5321 72.4862Z" fill="url(#paint1_linear_317_2636)"/>
<path d="M69.911 19.3898L68.8415 18.9273C69.9978 16.3258 70.3446 13.5797 69.8821 11.1804C69.4196 8.86794 68.2634 7.19138 66.5579 6.43982C62.9735 4.87888 58.1751 7.91404 55.8337 13.2328L54.7642 12.7703C57.3368 6.87341 62.829 3.54919 66.9915 5.37029C69.0438 6.26638 70.4603 8.26091 70.9806 10.9492C71.5298 13.5797 71.1251 16.557 69.911 19.3898Z" fill="white"/>
<path d="M69.6088 18.645L55.5474 12.4899L55.0837 13.5492L69.1451 19.7042L69.6088 18.645Z" fill="white"/>
<path d="M55.9506 13.0515L54.8911 12.5884L53.6176 15.502L54.6771 15.9651L55.9506 13.0515Z" fill="white"/>
<path d="M70.0849 18.9551L69.0254 18.4921L67.6593 21.6175L68.7188 22.0806L70.0849 18.9551Z" fill="white"/>
<path d="M47.7787 59.6864L46.7192 59.2233L45.5731 61.8455L46.6326 62.3086L47.7787 59.6864Z" fill="white"/>
<path d="M35.8607 67.8434L34.8013 67.3804L33.6552 70.0026L34.7146 70.4656L35.8607 67.8434Z" fill="url(#paint2_linear_317_2636)"/>
<path d="M31.9909 74.201L30.9314 73.7379L29.7853 76.3601L30.8448 76.8232L31.9909 74.201Z" fill="url(#paint3_linear_317_2636)"/>
<path d="M51.1027 72.2368L50.0432 71.7737L48.8971 74.3959L49.9566 74.859L51.1027 72.2368Z" fill="white"/>
<path d="M47.1618 60.0609L40.1086 56.968L45.1961 45.3187C45.2829 45.1453 45.8032 44.3937 47.2196 44.3937C47.9422 44.3937 48.8094 44.5961 49.7633 45.0297C52.5094 46.2437 52.2782 48.1516 52.2782 48.2383L52.2204 48.3828L47.1618 60.0609ZM41.6407 56.3898L46.5547 58.5578L51.1508 48.0648C51.1508 47.8047 51.0063 46.8508 49.3297 46.0992C48.5204 45.7523 47.7977 45.55 47.2485 45.55C46.4969 45.55 46.2368 45.868 46.2368 45.868L41.6407 56.3898Z" fill="white"/>
<path d="M68.5097 3.47352L67.4502 3.01044L66.2809 5.6856L67.3404 6.14868L68.5097 3.47352Z" fill="white"/>
</g>
<defs>
<linearGradient id="paint0_linear_317_2636" x1="27.0537" y1="66.6714" x2="25.9942" y2="66.2083" gradientUnits="userSpaceOnUse">
<stop stop-color="#02BE83"/>
<stop offset="1" stop-color="#B3F6DC"/>
</linearGradient>
<linearGradient id="paint1_linear_317_2636" x1="44.4497" y1="74.9627" x2="43.3902" y2="74.4996" gradientUnits="userSpaceOnUse">
<stop stop-color="#02BE83"/>
<stop offset="1" stop-color="#B3F6DC"/>
</linearGradient>
<linearGradient id="paint2_linear_317_2636" x1="35.2877" y1="69.1545" x2="34.2282" y2="68.6915" gradientUnits="userSpaceOnUse">
<stop stop-color="#02BE83"/>
<stop offset="1" stop-color="#B3F6DC"/>
</linearGradient>
<linearGradient id="paint3_linear_317_2636" x1="31.4178" y1="75.5121" x2="30.3583" y2="75.049" gradientUnits="userSpaceOnUse">
<stop stop-color="#02BE83"/>
<stop offset="1" stop-color="#B3F6DC"/>
</linearGradient>
<clipPath id="clip0_317_2636">
<rect width="74" height="74" fill="white" transform="translate(11 3)"/>
</clipPath>
</defs>
</svg>
