<svg width="74" height="71" viewBox="0 0 74 71" fill="none" xmlns="http://www.w3.org/2000/svg">
<circle cx="35.6246" cy="35.4219" r="34.817" fill="#1A184B"/>
<path d="M46.9034 21.2494H46.0767V27.7804H46.9034V21.2494Z" fill="#02BE83"/>
<path d="M49.7559 24.1016H43.2249V24.9283H49.7559V24.1016Z" fill="#02BE83"/>
<path d="M66.4754 61.8824H65.6487V67.256H66.4754V61.8824Z" fill="#02BE83"/>
<path d="M68.7489 64.1558H63.3752V64.9825H68.7489V64.1558Z" fill="#02BE83"/>
<path d="M30.2444 60.105H29.4177V65.4786H30.2444V60.105Z" fill="#02BE83"/>
<path d="M32.5177 62.3784H27.144V63.2051H32.5177V62.3784Z" fill="#02BE83"/>
<path d="M33.451 51.5086L28.1577 46.368L27.5817 46.9611L32.875 52.1017L33.451 51.5086Z" fill="white"/>
<path d="M33.4042 58.3275C32.6188 58.3275 31.8541 57.9968 31.2754 57.4388C30.7381 56.9014 30.4074 56.1781 30.3867 55.434C30.3454 54.6693 30.6141 53.9873 31.1308 53.4706L34.2103 50.3911C35.223 49.3783 37.0831 49.4403 38.1785 50.5357C39.3152 51.6725 39.3772 53.4499 38.3232 54.504L35.2437 57.5835C34.7683 58.0588 34.1069 58.3275 33.4042 58.3275ZM36.0497 50.4737C35.5537 50.4737 35.1197 50.6597 34.789 50.9904L31.7095 54.0699C31.3581 54.4213 31.1721 54.8967 31.2134 55.4133C31.2341 55.9507 31.4614 56.4674 31.8748 56.8601C32.6602 57.6455 33.9623 57.7075 34.665 57.0048L37.7445 53.9253C38.4678 53.2019 38.4058 51.9412 37.5998 51.1351C37.1864 50.7011 36.6077 50.4737 36.0497 50.4737Z" fill="white"/>
<path d="M36.9408 61.8618C36.1554 61.8618 35.3907 61.5311 34.812 60.973C33.6752 59.8363 33.6132 58.0589 34.6673 57.0048L37.7468 53.9253C38.7595 52.9126 40.6196 52.9746 41.715 54.07C42.8518 55.2067 42.9138 56.9841 41.8597 58.0382L38.7802 61.1177C38.3048 61.5931 37.6435 61.8618 36.9408 61.8618ZM39.5862 54.008C39.0902 54.008 38.6562 54.194 38.3255 54.5247L35.246 57.6042C34.5226 58.3276 34.5846 59.5883 35.3907 60.3943C36.176 61.1797 37.4781 61.2417 38.1808 60.539L41.2603 57.4595C41.9837 56.7361 41.9217 55.4754 41.1157 54.6694C40.723 54.2353 40.1443 54.008 39.5862 54.008Z" fill="white"/>
<path d="M40.5346 65.4579C39.7492 65.4579 38.9845 65.1273 38.4058 64.5692C37.8684 64.0319 37.5378 63.3085 37.5171 62.5645C37.4758 61.7997 37.7444 61.1177 38.2611 60.601L41.3406 57.5215C42.3534 56.5088 44.2135 56.5708 45.3089 57.6662C46.4456 58.8029 46.5076 60.5803 45.4535 61.6344L42.374 64.7139C41.878 65.1893 41.2373 65.4579 40.5346 65.4579ZM43.1801 57.5835C42.6841 57.5835 42.25 57.7695 41.9193 58.1002L38.8398 61.1797C38.4885 61.5311 38.3025 62.0064 38.3438 62.5231C38.3645 63.0605 38.5918 63.5772 39.0052 63.9699C39.7906 64.7552 41.0926 64.8172 41.7953 64.1145L44.8748 61.035C45.5982 60.3117 45.5362 59.0509 44.7302 58.2449C44.2961 57.8315 43.7381 57.5835 43.1801 57.5835Z" fill="white"/>
<path d="M44.1522 69.0748C43.3668 69.0748 42.6021 68.7441 42.0234 68.1861C40.8867 67.0494 40.8247 65.2719 41.8787 64.2179L44.9582 61.1384C45.971 60.1257 47.8311 60.1877 48.9265 61.2831C50.0632 62.4198 50.1252 64.1972 49.0711 65.2513L45.9916 68.3308C45.5163 68.8061 44.8549 69.0748 44.1522 69.0748ZM46.7977 61.2211C46.3016 61.2211 45.8676 61.4071 45.5369 61.7377L42.4574 64.8173C41.734 65.5406 41.7961 66.8014 42.6021 67.6074C43.3875 68.3928 44.6895 68.4548 45.3923 67.7521L48.4718 64.6726C49.1951 63.9492 49.1331 62.6885 48.3271 61.8824C47.9137 61.4484 47.3557 61.2211 46.7977 61.2211Z" fill="white"/>
<path d="M60.6871 58.6169C59.9224 58.6169 59.2197 58.3276 58.6823 57.7902L59.261 57.2115C60.0257 57.9762 61.3485 57.9762 62.1132 57.2115C62.4852 56.8395 62.7126 56.3228 62.7126 55.7854C62.7126 55.2481 62.5059 54.7314 62.1132 54.3594L52.606 44.8935C51.5726 43.8808 49.8985 43.8601 48.8858 44.8521L44.7935 48.9444C44.1528 49.5851 43.3055 49.9571 42.3961 49.9778C41.5074 50.0191 40.66 49.6678 40.0193 49.027C38.7379 47.7456 38.7585 45.5962 40.1019 44.2528L48.7411 36.4403C49.2991 35.7996 50.7459 34.8282 52.0686 35.903C52.6473 36.3783 53.1847 36.833 53.6601 37.267C54.1354 37.7011 54.7141 37.9284 55.2721 37.9078C55.6648 37.9078 55.8095 37.7837 56.4089 37.1017L57.0289 37.6391C56.4295 38.3418 56.0575 38.7138 55.2928 38.7345C54.5074 38.7551 53.7221 38.4451 53.102 37.8664C52.7713 37.5771 52.2546 37.1017 51.5519 36.523C50.5185 35.6756 49.3818 36.9364 49.3198 36.9984L40.6806 44.8521C39.6886 45.8442 39.6473 47.4563 40.6186 48.4277C41.094 48.903 41.714 49.1304 42.3961 49.1304C43.0781 49.1097 43.7188 48.841 44.2148 48.345L48.2864 44.2734C49.6712 42.9094 51.8619 42.93 53.2054 44.2734L62.7126 53.7393C63.2499 54.2767 63.5393 55.0001 63.5393 55.7441C63.5393 56.5088 63.2499 57.2115 62.7126 57.7489C62.1752 58.2862 61.4518 58.6169 60.6871 58.6169Z" fill="white"/>
<path d="M57.2553 62.0478C56.5319 62.0478 55.8085 61.7791 55.2505 61.221L55.8292 60.6423C56.6146 61.4277 57.896 61.4277 58.6814 60.6423C59.4667 59.857 59.4667 58.5756 58.6814 57.7902L59.26 57.2115C60.3761 58.3275 60.3761 60.1257 59.26 61.2417C58.702 61.7791 57.9786 62.0478 57.2553 62.0478Z" fill="white"/>
<path d="M53.7643 65.5406C52.9996 65.5406 52.2969 65.2513 51.7595 64.7139L52.3382 64.1352C53.1029 64.8999 54.4257 64.8999 55.1904 64.1352C55.5624 63.7632 55.7897 63.2465 55.7897 62.7091C55.7897 62.1718 55.5831 61.6551 55.1904 61.283L55.7691 60.7043C56.3064 61.2417 56.5958 61.9651 56.5958 62.7091C56.5958 63.4738 56.3064 64.1765 55.7691 64.7139C55.2317 65.2513 54.529 65.5406 53.7643 65.5406Z" fill="white"/>
<path d="M46.9644 38.6311C46.9644 38.6311 45.931 37.5771 44.0089 36.1717C43.0168 35.4276 42.0868 36.275 40.9914 37.4324C40.516 37.9284 40.1647 38.3005 39.7927 38.4038C38.7386 38.6932 37.6225 37.4737 37.4985 37.3497L38.1186 36.7917C38.4079 37.1017 39.152 37.7218 39.586 37.5978C39.7307 37.5564 40.1027 37.1637 40.392 36.8537C41.3014 35.8823 42.8515 34.2702 44.5049 35.5103C46.4684 36.9571 47.5018 38.0111 47.5431 38.0524L46.9644 38.6311Z" fill="white"/>
<path d="M66.5299 47.6488L65.9421 47.0674L60.8699 52.1959L61.4577 52.7773L66.5299 47.6488Z" fill="white"/>
<path d="M50.5589 68.8061C50.5176 68.8061 50.4969 68.8061 50.4556 68.8061C49.3395 68.7854 48.2441 68.3101 47.3968 67.4627L46.9834 67.0493L47.5621 66.45L47.9755 66.8633C48.6782 67.566 49.5669 67.9587 50.4763 67.9794C50.869 68 51.3856 67.938 51.6543 67.6487C52.4397 66.8633 52.4397 65.5819 51.6543 64.7965L52.233 64.2178C53.3491 65.3339 53.3491 67.132 52.233 68.2481C51.861 68.6201 51.303 68.8061 50.5589 68.8061Z" fill="white"/>
<path d="M68.3749 46.0715C67.2382 46.0715 66.3081 45.1414 66.3081 44.0047C66.3081 42.868 67.2382 41.9379 68.3749 41.9379C69.5116 41.9379 70.4417 42.868 70.4417 44.0047C70.4417 45.1414 69.5116 46.0715 68.3749 46.0715ZM68.3749 42.7646C67.6929 42.7646 67.1348 43.3227 67.1348 44.0047C67.1348 44.6867 67.6929 45.2448 68.3749 45.2448C69.0569 45.2448 69.615 44.6867 69.615 44.0047C69.615 43.3227 69.0569 42.7646 68.3749 42.7646Z" fill="white"/>
<path d="M25.5524 48.4483C24.6844 48.4483 23.8783 48.1176 23.279 47.4976L21.7289 45.9061C21.1502 45.3274 20.8402 44.5627 20.8608 43.7567C20.8815 42.9506 21.1915 42.1859 21.7702 41.6072L31.8975 31.6867C33.0755 30.5293 35.163 30.5086 36.3617 31.6867L37.9945 33.2781C38.5938 33.8568 38.9245 34.6422 38.9245 35.4482C38.9245 36.2749 38.5938 37.0396 37.9945 37.6183L27.7846 47.5389C27.1645 48.1383 26.3791 48.4483 25.5524 48.4483ZM34.1089 31.6247C33.4889 31.6247 32.8895 31.8727 32.4555 32.286L22.3283 42.2066C21.8942 42.62 21.6669 43.178 21.6669 43.7567C21.6669 44.3354 21.8942 44.8934 22.3076 45.3274L23.8577 46.9189C24.7257 47.8076 26.2965 47.8282 27.1852 46.9602L37.3951 37.0396C37.8291 36.6056 38.0771 36.0476 38.0771 35.4482C38.0771 34.8488 37.8291 34.2908 37.3951 33.8568L35.7623 32.2654C35.3283 31.852 34.729 31.6247 34.1089 31.6247Z" fill="white"/>
<path d="M68.7693 49.2957C67.9426 49.2957 67.1779 48.965 66.5992 48.3656L56.6786 38.1557C55.4592 36.895 55.4799 34.8902 56.72 33.6708L58.3114 32.1207C59.4688 30.984 61.4529 30.984 62.6103 32.162L72.5309 42.2893C73.7296 43.5087 73.7296 45.5135 72.5309 46.7535L70.9394 48.3863C70.3814 48.965 69.596 49.2957 68.7693 49.2957ZM60.4402 32.0794C59.8615 32.0794 59.3035 32.3067 58.8901 32.7201L57.2987 34.2702C56.3686 35.1795 56.3686 36.6676 57.2573 37.5977L67.1779 47.8076C68.0253 48.6756 69.4927 48.6756 70.3401 47.8076L71.9315 46.1748C72.8202 45.2654 72.8202 43.7774 71.9315 42.868L62.0109 32.7407C61.5976 32.3067 61.0396 32.0794 60.4402 32.0794Z" fill="#02BE83"/>
</svg>
