<svg width="34" height="35" viewBox="0 0 34 35" fill="none" xmlns="http://www.w3.org/2000/svg">
<path d="M33.9989 17.7325C33.9989 16.3062 33.8831 15.2654 33.6327 14.186H17.3457V20.6236H26.9058C26.7131 22.2235 25.6723 24.6328 23.3593 26.2518L23.3269 26.4673L28.4765 30.4566L28.8333 30.4922C32.1099 27.4661 33.9989 23.0137 33.9989 17.7325Z" fill="#4285F4"/>
<path d="M17.3483 34.6941C22.0319 34.6941 25.9639 33.152 28.8359 30.4922L23.3619 26.2517C21.8971 27.2733 19.931 27.9864 17.3483 27.9864C12.761 27.9864 8.86758 24.9604 7.47968 20.7779L7.27625 20.7952L1.92159 24.9392L1.85156 25.1339C4.70416 30.8005 10.5636 34.6941 17.3483 34.6941Z" fill="#34A853"/>
<path d="M7.47843 20.7779C7.11222 19.6985 6.90028 18.542 6.90028 17.347C6.90028 16.1519 7.11222 14.9955 7.45916 13.9161L7.44946 13.6863L2.0277 9.47568L1.85031 9.56005C0.674614 11.9116 0 14.5522 0 17.347C0 20.1418 0.674614 22.7823 1.85031 25.1339L7.47843 20.7779Z" fill="#FBBC05"/>
<path d="M17.3483 6.70748C20.6056 6.70748 22.8029 8.1145 24.0558 9.29033L28.9515 4.51023C25.9447 1.71544 22.0319 0 17.3483 0C10.5636 0 4.70416 3.89342 1.85156 9.56007L7.46041 13.9162C8.86758 9.73361 12.761 6.70748 17.3483 6.70748Z" fill="#EB4335"/>
</svg>
