<svg width="74" height="18" viewBox="0 0 74 18" fill="none" xmlns="http://www.w3.org/2000/svg">
<g clip-path="url(#clip0_173_445)">
<path fill-rule="evenodd" clip-rule="evenodd" d="M16.0706 16.6831H19.6127V0.0576172H16.0706V16.6831ZM38.4993 7.06947V5.58243H38.4547V5.58182H35.3635V5.58243H35.1899V16.6831H38.5398V10.8655C38.5398 9.17738 40.4437 8.43695 41.7503 8.8113C41.7633 8.81514 41.7763 8.81278 41.7899 8.81278V5.58272C40.4183 5.58272 39.1574 6.17878 38.4993 7.06947ZM27.1049 14.112C25.3695 14.112 23.9631 12.7782 23.9631 11.1326C23.9631 9.48704 25.3695 8.15324 27.1049 8.15324C28.8399 8.15324 30.2466 9.48704 30.2466 11.1326C30.2466 12.7782 28.8399 14.112 27.1049 14.112ZM30.2151 6.35148C29.2594 5.67424 28.093 5.27481 26.8327 5.27481C23.5976 5.27481 20.9751 7.89756 20.9751 11.1326C20.9751 14.3677 23.5976 16.9905 26.8327 16.9905C28.093 16.9905 29.2594 16.591 30.2151 15.9141V16.6831H33.1085V5.58243H30.2151V6.35148ZM50.073 5.28335C48.7451 5.28335 47.4886 5.6955 46.6487 6.8327V5.58243H46.6041V5.58182H43.5128V5.58243H43.3392V16.6831H46.6891V10.6113C46.6891 8.92317 47.8213 8.09656 49.1844 8.09656C50.6451 8.09656 51.4847 8.96922 51.4847 10.5882V16.6831H54.8045V9.62374C54.8045 7.03994 52.7504 5.28335 50.073 5.28335ZM71.6412 12.7454C70.4889 12.7454 69.5548 13.6795 69.5548 14.8318C69.5548 15.9837 70.4889 16.9178 71.6412 16.9178C72.7931 16.9178 73.7272 15.9837 73.7272 14.8318C73.7272 13.6795 72.7931 12.7454 71.6412 12.7454ZM62.1087 14.112C60.3733 14.112 58.9669 12.7782 58.9669 11.1326C58.9669 9.48704 60.3733 8.15324 62.1087 8.15324C63.8437 8.15324 65.2501 9.48704 65.2501 11.1326C65.2501 12.7782 63.8437 14.112 62.1087 14.112ZM65.2188 6.35148C64.2632 5.67424 63.0968 5.27481 61.8365 5.27481C58.6014 5.27481 55.9786 7.89756 55.9786 11.1326C55.9786 14.3677 58.6014 16.9905 61.8365 16.9905C63.0968 16.9905 64.2632 16.591 65.2188 15.9141V16.6831H68.1121V5.58243H65.2188V6.35148ZM70.2158 5.78493H70.3773C70.4786 5.78493 70.5217 5.83426 70.5217 5.90984C70.5217 5.98512 70.4936 6.0412 70.3773 6.0412H70.2158V5.78493ZM70.2182 6.1767H70.3794L70.5152 6.4867H70.6766L70.5258 6.15072C70.6229 6.10791 70.6722 6.02379 70.6722 5.90984C70.6722 5.75248 70.5518 5.64708 70.3773 5.64708H70.0694V6.48461H70.2182V6.1767ZM0.489258 16.6831H4.18132V0.0576172H0.489258V16.6831ZM13.6574 0.0590947H10.0728C9.99959 3.81227 7.83148 7.05204 4.68823 8.6554L10.1962 16.6831H14.6937L9.68696 9.38106C12.1869 6.92864 13.6069 3.62274 13.6574 0.0590947ZM70.3407 5.43597C70.6917 5.43597 70.976 5.72471 70.976 6.07987C70.976 6.43502 70.6917 6.72347 70.3407 6.72347C69.99 6.72347 69.7057 6.43502 69.7057 6.07987C69.7057 5.72471 69.99 5.43597 70.3407 5.43597ZM70.3407 6.87638C70.7755 6.87638 71.1286 6.51886 71.1286 6.07987C71.1286 5.64057 70.7755 5.28335 70.3407 5.28335C69.9058 5.28335 69.5548 5.64057 69.5548 6.07987C69.5548 6.51886 69.9058 6.87638 70.3407 6.87638Z" fill="#D9B1B1"/>
</g>
<defs>
<clipPath id="clip0_173_445">
<rect width="73.5107" height="17.123" fill="white" transform="translate(0.489258 0.057373)"/>
</clipPath>
</defs>
</svg>
