<svg width="72" height="20" viewBox="0 0 72 20" fill="none" xmlns="http://www.w3.org/2000/svg">
<g clip-path="url(#clip0_173_411)">
<path d="M26.6452 3.89154H22.7018C22.5712 3.89146 22.4449 3.938 22.3457 4.02279C22.2464 4.10757 22.1807 4.22502 22.1603 4.35398L20.5655 14.4658C20.5581 14.5128 20.5611 14.5607 20.574 14.6064C20.587 14.6521 20.6097 14.6944 20.6406 14.7305C20.6716 14.7665 20.7099 14.7955 20.7531 14.8153C20.7962 14.8351 20.8432 14.8453 20.8907 14.8453H22.7733C22.9039 14.8453 23.0303 14.7987 23.1295 14.7138C23.2288 14.6289 23.2945 14.5113 23.3147 14.3822L23.7448 11.6549C23.765 11.526 23.8306 11.4084 23.9298 11.3236C24.029 11.2387 24.1552 11.192 24.2857 11.1919H25.534C28.1316 11.1919 29.6308 9.93491 30.0223 7.44399C30.1988 6.35421 30.0298 5.49795 29.5195 4.89829C28.9591 4.23981 27.965 3.89154 26.6452 3.89154ZM27.1001 7.58468C26.8844 8.99966 25.8033 8.99966 24.7579 8.99966H24.1629L24.5803 6.35709C24.5926 6.27978 24.632 6.20937 24.6915 6.15853C24.751 6.10768 24.8267 6.07975 24.905 6.07975H25.1777C25.8898 6.07975 26.5615 6.07975 26.9087 6.48567C27.1157 6.72785 27.1791 7.08765 27.1001 7.58468ZM38.4326 7.53913H36.5443C36.466 7.53913 36.3903 7.56706 36.3308 7.61791C36.2713 7.66875 36.2319 7.73916 36.2196 7.81647L36.136 8.34464L36.004 8.15321C35.5952 7.55988 34.6836 7.36153 33.7737 7.36153C31.687 7.36153 29.9047 8.942 29.5576 11.159C29.3771 12.265 29.6337 13.3224 30.261 14.0599C30.8365 14.738 31.6599 15.0205 32.6395 15.0205C34.3209 15.0205 35.2533 13.9394 35.2533 13.9394L35.1691 14.4641C35.1616 14.511 35.1643 14.559 35.1772 14.6048C35.19 14.6505 35.2126 14.6929 35.2434 14.7291C35.2742 14.7653 35.3125 14.7943 35.3556 14.8143C35.3987 14.8342 35.4456 14.8446 35.4931 14.8447H37.1941C37.3247 14.8447 37.4511 14.7981 37.5504 14.7132C37.6496 14.6283 37.7153 14.5107 37.7355 14.3817L38.7561 7.91853C38.7636 7.87172 38.7609 7.82384 38.7481 7.77819C38.7353 7.73255 38.7127 7.69023 38.682 7.65415C38.6512 7.61808 38.613 7.58911 38.5699 7.56925C38.5269 7.54939 38.48 7.53911 38.4326 7.53913ZM35.8004 11.2144C35.6182 12.2932 34.762 13.0174 33.6699 13.0174C33.1216 13.0174 32.6833 12.8416 32.402 12.5083C32.1229 12.1773 32.0168 11.7062 32.1056 11.1815C32.2757 10.1119 33.1463 9.36407 34.2217 9.36407C34.758 9.36407 35.1939 9.54224 35.481 9.8784C35.7687 10.218 35.8829 10.692 35.8004 11.2144ZM48.4897 7.53913H46.5921C46.5026 7.53927 46.4145 7.56124 46.3355 7.60314C46.2564 7.64504 46.1887 7.7056 46.1383 7.77957L43.5211 11.6347L42.4118 7.93006C42.3777 7.81707 42.3082 7.71804 42.2135 7.64764C42.1188 7.57723 42.0039 7.53918 41.8859 7.53913H40.0212C39.9688 7.53899 39.9172 7.55135 39.8706 7.57519C39.824 7.59903 39.7838 7.63366 39.7533 7.67619C39.7227 7.71872 39.7028 7.76792 39.6952 7.8197C39.6875 7.87148 39.6923 7.92434 39.7092 7.97388L41.7994 14.1078L39.8344 16.8818C39.7994 16.931 39.7787 16.9888 39.7745 17.049C39.7702 17.1092 39.7827 17.1694 39.8103 17.223C39.838 17.2765 39.8799 17.3215 39.9315 17.3528C39.983 17.3842 40.0422 17.4008 40.1025 17.4008H41.9978C42.0863 17.4009 42.1735 17.3795 42.2519 17.3386C42.3303 17.2976 42.3976 17.2382 42.4481 17.1655L48.7596 8.05518C48.7938 8.0059 48.8139 7.94818 48.8176 7.8883C48.8213 7.82842 48.8086 7.76866 48.7808 7.71549C48.753 7.66233 48.7112 7.61778 48.6599 7.58669C48.6086 7.5556 48.5497 7.53915 48.4897 7.53913Z" fill="#253B80"/>
<path d="M54.7727 3.89145H50.8287C50.6983 3.8915 50.5721 3.93811 50.473 4.02288C50.3738 4.10765 50.3082 4.22503 50.2879 4.35388L48.693 14.4658C48.6856 14.5126 48.6884 14.5605 48.7013 14.6061C48.7142 14.6518 48.7368 14.6941 48.7676 14.7302C48.7984 14.7662 48.8366 14.7952 48.8797 14.815C48.9228 14.8349 48.9696 14.8452 49.0171 14.8452H51.0409C51.1322 14.845 51.2205 14.8123 51.2898 14.7529C51.3592 14.6935 51.405 14.6113 51.4192 14.5211L51.8718 11.6548C51.892 11.5259 51.9576 11.4083 52.0568 11.3235C52.1559 11.2386 52.2821 11.1919 52.4127 11.1918H53.6604C56.2586 11.1918 57.7572 9.93481 58.1493 7.44389C58.3263 6.35411 58.1562 5.49786 57.6459 4.89819C57.086 4.23971 56.0925 3.89145 54.7727 3.89145ZM55.2276 7.58458C55.0126 8.99957 53.9314 8.99956 52.8855 8.99956H52.291L52.709 6.357C52.721 6.27968 52.7603 6.20921 52.8197 6.15834C52.8792 6.10747 52.9549 6.07955 53.0331 6.07965H53.3058C54.0173 6.07965 54.6897 6.07965 55.0368 6.48558C55.2438 6.72775 55.3066 7.08755 55.2276 7.58458ZM66.5596 7.53903H64.6724C64.5941 7.53882 64.5184 7.56669 64.4589 7.61758C64.3994 7.66848 64.3602 7.73901 64.3483 7.81638L64.2647 8.34454L64.1321 8.15311C63.7233 7.55979 62.8123 7.36144 61.9024 7.36144C59.8157 7.36144 58.034 8.94191 57.6868 11.1589C57.5069 12.2649 57.7624 13.3224 58.3897 14.0598C58.9663 14.7379 59.7886 15.0204 60.7682 15.0204C62.4496 15.0204 63.3819 13.9393 63.3819 13.9393L63.2978 14.464C63.2902 14.511 63.293 14.5591 63.3059 14.6049C63.3188 14.6508 63.3415 14.6932 63.3724 14.7294C63.4034 14.7656 63.4418 14.7947 63.485 14.8145C63.5283 14.8344 63.5754 14.8447 63.623 14.8446H65.3234C65.4539 14.8445 65.5801 14.7978 65.6793 14.7129C65.7784 14.628 65.844 14.5105 65.8642 14.3816L66.8854 7.91844C66.8926 7.87148 66.8896 7.82351 66.8766 7.77783C66.8635 7.73215 66.8407 7.68983 66.8098 7.65379C66.7788 7.61774 66.7404 7.58882 66.6973 7.56901C66.6541 7.5492 66.6071 7.53898 66.5596 7.53903ZM63.9274 11.2143C63.7464 12.2931 62.889 13.0173 61.7969 13.0173C61.2497 13.0173 60.8103 12.8415 60.5289 12.5082C60.2498 12.1772 60.1449 11.7061 60.2325 11.1814C60.4038 10.1118 61.2733 9.36398 62.3487 9.36398C62.8849 9.36398 63.3208 9.54215 63.608 9.87831C63.8969 10.2179 64.011 10.6919 63.9274 11.2143ZM68.7859 4.16879L67.1673 14.4658C67.1599 14.5126 67.1627 14.5605 67.1756 14.6061C67.1885 14.6518 67.2111 14.6941 67.2419 14.7302C67.2727 14.7662 67.311 14.7952 67.354 14.815C67.3971 14.8349 67.444 14.8452 67.4914 14.8452H69.1186C69.389 14.8452 69.6185 14.6491 69.66 14.3821L71.256 4.27085C71.2634 4.22398 71.2606 4.17606 71.2477 4.13039C71.2349 4.08472 71.2123 4.04237 71.1815 4.00627C71.1507 3.97016 71.1124 3.94115 71.0694 3.92123C71.0263 3.90131 70.9794 3.89095 70.932 3.89087H69.1099C69.0317 3.89115 68.9561 3.91927 68.8967 3.97019C68.8374 4.02112 68.7981 4.09152 68.7859 4.16879Z" fill="#179BD7"/>
<path d="M4.18963 16.8102L4.4912 14.8947L3.81945 14.8792H0.611816L2.84096 0.744925C2.8476 0.701738 2.86953 0.662375 2.90277 0.634009C2.936 0.605644 2.97832 0.590165 3.02201 0.590396H8.43054C10.2261 0.590396 11.4652 0.964034 12.1121 1.70151C12.4154 2.04747 12.6086 2.409 12.702 2.80685C12.8 3.22431 12.8018 3.72308 12.706 4.33139L12.6991 4.37579V4.76557L13.0024 4.9374C13.234 5.0547 13.4421 5.21338 13.6165 5.4056C13.876 5.7014 14.0438 6.07734 14.1147 6.52306C14.1879 6.98145 14.1637 7.52692 14.0438 8.14446C13.9054 8.85483 13.6817 9.47353 13.3795 9.97978C13.1129 10.4333 12.7545 10.8261 12.3272 11.133C11.9259 11.4178 11.4491 11.6341 10.9099 11.7724C10.3875 11.9085 9.7919 11.9771 9.13861 11.9771H8.71769C8.4167 11.9771 8.12437 12.0855 7.89488 12.2799C7.66572 12.4762 7.5137 12.7476 7.46589 13.0456L7.43417 13.218L6.90139 16.594L6.87718 16.718C6.87083 16.7572 6.85988 16.7768 6.84373 16.79C6.82809 16.8028 6.80858 16.8099 6.78838 16.8102H4.18963Z" fill="#253B80"/>
<path d="M13.2897 4.42078C13.2735 4.52399 13.2551 4.62951 13.2343 4.73791C12.5211 8.39991 10.0809 9.66497 6.96434 9.66497H5.37753C4.9964 9.66497 4.67523 9.94174 4.61584 10.3177L3.80341 15.4702L3.57335 16.9307C3.56418 16.9887 3.56768 17.0479 3.5836 17.1044C3.59952 17.1608 3.62749 17.2131 3.66558 17.2577C3.70366 17.3024 3.75096 17.3382 3.80422 17.3627C3.85748 17.3873 3.91543 17.4001 3.97408 17.4001H6.78848C7.12175 17.4001 7.40487 17.1579 7.45734 16.8293L7.48501 16.6863L8.01491 13.3235L8.04893 13.139C8.10082 12.8092 8.38451 12.567 8.71779 12.567H9.13871C11.8655 12.567 14 11.4599 14.6239 8.25633C14.8845 6.91804 14.7496 5.80059 14.06 5.01468C13.8414 4.77156 13.5804 4.57031 13.2897 4.42078Z" fill="#179BD7"/>
<path d="M12.5439 4.12328C12.3162 4.0574 12.0845 4.00598 11.8503 3.96933C11.3874 3.8982 10.9197 3.86407 10.4514 3.86727H6.21225C6.05092 3.86715 5.89486 3.92474 5.7723 4.02965C5.64973 4.13455 5.56874 4.27984 5.54396 4.43926L4.64216 10.1511L4.61621 10.3177C4.6443 10.1359 4.73655 9.97012 4.87626 9.8504C5.01597 9.73068 5.19391 9.66491 5.3779 9.66501H6.96471C10.0812 9.66501 12.5214 8.39936 13.2347 4.73794C13.256 4.62954 13.2739 4.52402 13.29 4.42081C13.1018 4.32211 12.9057 4.23937 12.7036 4.17345C12.6507 4.15587 12.5974 4.13915 12.5439 4.12328Z" fill="#222D65"/>
<path d="M5.5434 4.43926C5.56797 4.2798 5.64892 4.13444 5.77154 4.02959C5.89417 3.92473 6.05034 3.86735 6.21168 3.86785H10.4509C10.9531 3.86785 11.4219 3.90071 11.8497 3.96991C12.1392 4.01541 12.4247 4.08346 12.7036 4.17345C12.9141 4.24322 13.1096 4.32567 13.29 4.42081C13.5022 3.06752 13.2883 2.14611 12.5566 1.31177C11.7499 0.393243 10.294 0 8.43102 0H3.0225C2.64194 0 2.31731 0.276769 2.2585 0.65329L0.00571396 14.9328C-0.00477913 14.9991 -0.000786869 15.0669 0.0174161 15.1315C0.0356191 15.1961 0.0676009 15.256 0.111161 15.3071C0.154722 15.3582 0.208827 15.3992 0.269756 15.4274C0.330685 15.4555 0.396991 15.4701 0.464113 15.4702H3.80322L4.64159 10.1511L5.5434 4.43926Z" fill="#253B80"/>
</g>
<defs>
<clipPath id="clip0_173_411">
<rect width="71.4987" height="19.0279" fill="white"/>
</clipPath>
</defs>
</svg>
