<svg width="54" height="18" viewBox="0 0 54 18" fill="none" xmlns="http://www.w3.org/2000/svg">
<g clip-path="url(#clip0_173_418)">
<path d="M23.3043 17.1961H18.9565L21.676 0.362427H26.0235L23.3043 17.1961Z" fill="#00579F"/>
<path d="M39.0656 0.774047C38.208 0.433443 36.8479 0.057373 35.166 0.057373C30.8724 0.057373 27.8489 2.34949 27.8304 5.62653C27.7947 8.04433 29.9951 9.38723 31.6408 10.1934C33.3229 11.0172 33.8947 11.5549 33.8947 12.2891C33.8776 13.4169 32.5355 13.9367 31.2837 13.9367C29.5479 13.9367 28.6178 13.6687 27.2044 13.0413L26.6318 12.7723L26.0234 16.5511C27.0432 17.0162 28.9219 17.4289 30.8724 17.447C35.4344 17.447 38.4044 15.1904 38.4396 11.6981C38.457 9.78186 37.2951 8.31352 34.7901 7.11367C33.2694 6.34344 32.3382 5.82409 32.3382 5.03601C32.356 4.31957 33.1258 3.58576 34.8424 3.58576C36.2558 3.54982 37.2944 3.88995 38.0811 4.23032L38.4743 4.40907L39.0656 0.774047Z" fill="#00579F"/>
<path d="M44.8444 11.2325C45.2025 10.2654 46.5802 6.52258 46.5802 6.52258C46.5622 6.55853 46.9376 5.53766 47.1523 4.91096L47.4561 6.36145C47.4561 6.36145 48.2795 10.3909 48.4582 11.2325C47.7787 11.2325 45.7032 11.2325 44.8444 11.2325ZM50.2112 0.362427H46.8482C45.8111 0.362427 45.0232 0.666614 44.5757 1.75912L38.1177 17.1958H42.6797C42.6797 17.1958 43.4307 15.1181 43.5922 14.6707C44.0926 14.6707 48.5305 14.6707 49.1744 14.6707C49.2992 15.2617 49.6931 17.1958 49.6931 17.1958H53.7188L50.2112 0.362427Z" fill="#00579F"/>
<path d="M15.3251 0.362427L11.0672 11.8414L10.6019 9.51329C9.81472 6.82701 7.3459 3.90843 4.59082 2.45723L8.49092 17.1782H13.0886L19.9225 0.362427H15.3251Z" fill="#00579F"/>
<path d="M7.1136 0.362427H0.118438L0.046875 0.702555C5.50354 2.09949 9.11738 5.46674 10.6021 9.514L9.08148 1.77745C8.83112 0.702317 8.06176 0.397892 7.1136 0.362427Z" fill="#FAA61A"/>
</g>
<defs>
<clipPath id="clip0_173_418">
<rect width="53.6717" height="17.3896" fill="white" transform="translate(0.0473633 0.057373)"/>
</clipPath>
</defs>
</svg>
