<svg width="170" height="169" viewBox="0 0 170 169" fill="none" xmlns="http://www.w3.org/2000/svg">
<g opacity="0.9">
<g opacity="0.9">
<path opacity="0.9" d="M28.7993 97.8996C30.4008 98.9368 30.8622 101.077 29.8255 102.68C28.7888 104.284 26.6483 104.746 25.0436 103.709C23.4401 102.672 22.9795 100.531 24.0162 98.9275C25.0529 97.324 27.1959 96.8629 28.7993 97.8996Z" fill="white"/>
</g>
<g opacity="0.9">
<path opacity="0.9" d="M41.1917 78.7914C42.7964 79.8288 43.256 81.969 42.2187 83.5737C41.1821 85.1773 39.04 85.6373 37.4372 84.5996C35.8336 83.563 35.3732 81.424 36.4106 79.8193C37.4471 78.2157 39.5881 77.7549 41.1917 78.7914Z" fill="white"/>
</g>
<g opacity="0.9">
<path opacity="0.9" d="M53.4829 59.5183C55.0877 60.5556 55.5473 62.6958 54.5107 64.2993C53.4734 65.9041 51.3332 66.3637 49.7284 65.3264C48.1249 64.2898 47.6653 62.1496 48.7018 60.5461C49.7392 58.9413 51.8793 58.4817 53.4829 59.5183Z" fill="white"/>
</g>
<g opacity="0.9">
<path opacity="0.9" d="M65.8754 40.4098C67.4806 41.4491 67.9406 43.5861 66.9044 45.1917C65.8666 46.7945 63.7257 47.2553 62.1209 46.2179C60.5174 45.1814 60.0577 43.0412 61.0943 41.4376C62.1317 39.8329 64.2718 39.3732 65.8754 40.4098Z" fill="white"/>
</g>
<g opacity="0.9">
<path opacity="0.9" d="M78.2302 21.3291C79.8318 22.3661 80.2934 24.5058 79.256 26.1106C78.2195 27.7142 76.0785 28.175 74.4757 27.1372C72.8734 26.1014 72.4106 23.9609 73.4479 22.3561C74.4845 20.7526 76.6266 20.2925 78.2302 21.3291Z" fill="white"/>
</g>
<g opacity="0.9">
<path opacity="0.9" d="M45.4628 108.656C47.0675 109.693 47.5279 111.832 46.4898 113.438C45.4532 115.041 43.3131 115.501 41.7083 114.464C40.1047 113.427 39.6443 111.288 40.6817 109.683C41.719 108.079 43.8592 107.619 45.4628 108.656Z" fill="white"/>
</g>
<g opacity="0.9">
<path opacity="0.9" d="M57.8151 89.5737C59.4198 90.611 59.8802 92.75 58.8429 94.3548C57.8055 95.9595 55.6654 96.4191 54.0606 95.3818C52.457 94.3452 51.9974 92.2051 53.034 90.6015C54.0713 88.9967 56.2115 88.5371 57.8151 89.5737Z" fill="white"/>
</g>
<g opacity="0.9">
<path opacity="0.9" d="M70.1064 70.3002C71.71 71.3368 72.1716 73.4766 71.1343 75.0813C70.0977 76.6849 67.9555 77.1449 66.352 76.1084C64.7504 75.0714 64.2888 72.9316 65.3261 71.3269C66.3627 69.7233 68.5049 69.2632 70.1064 70.3002Z" fill="white"/>
</g>
<g opacity="0.9">
<path opacity="0.9" d="M82.5002 51.1926C84.105 52.2299 84.5646 54.3701 83.5273 55.9749C82.4907 57.5784 80.3486 58.0385 78.7458 57.0007C77.1422 55.9641 76.6818 53.8252 77.7192 52.2204C78.7557 50.6168 80.8967 50.156 82.5002 51.1926Z" fill="white"/>
</g>
<g opacity="0.9">
<path opacity="0.9" d="M94.8938 32.0849C96.4986 33.1223 96.959 35.2612 95.9208 36.8672C94.8843 38.4708 92.7441 38.9304 91.1393 37.893C89.5358 36.8565 89.0754 34.7175 90.1127 33.1127C91.1493 31.5092 93.2902 31.0483 94.8938 32.0849Z" fill="white"/>
</g>
<g opacity="0.9">
<path opacity="0.9" d="M62.0861 119.438C63.6908 120.475 64.1512 122.614 63.1139 124.219C62.0773 125.822 59.9364 126.283 58.3316 125.246C56.728 124.209 56.2684 122.069 57.305 120.466C58.3423 118.861 60.4845 118.401 62.0861 119.438Z" fill="white"/>
</g>
<g opacity="0.9">
<path opacity="0.9" d="M74.4795 100.331C76.0829 101.37 76.5425 103.508 75.5074 105.113C74.4712 106.717 72.3291 107.177 70.7261 106.14C69.1224 105.103 68.6611 102.962 69.6986 101.359C70.7337 99.7549 72.8757 99.2944 74.4795 100.331Z" fill="white"/>
</g>
<g opacity="0.9">
<path opacity="0.9" d="M86.7702 81.0561C88.3749 82.0934 88.8346 84.2336 87.7984 85.8391C86.7606 87.4419 84.6217 87.9023 83.0157 86.8642C81.4133 85.8284 80.9517 83.6886 81.9895 82.0858C83.0257 80.4803 85.1666 80.0195 86.7702 81.0561Z" fill="white"/>
</g>
<g opacity="0.9">
<path opacity="0.9" d="M99.1649 61.949C100.77 62.9864 101.23 65.1254 100.192 66.7313C99.1562 68.3337 97.0152 68.7945 95.4105 67.7572C93.8069 66.7206 93.3473 64.5804 94.3838 62.9769C95.4212 61.3721 97.5614 60.9125 99.1649 61.949Z" fill="white"/>
</g>
<g opacity="0.9">
<path opacity="0.9" d="M111.56 42.842C113.161 43.8792 113.623 46.0189 112.586 47.6224C111.549 49.2259 109.408 49.6877 107.804 48.651C106.201 47.6143 105.74 45.4733 106.777 43.8698C107.813 42.2664 109.954 41.8057 111.56 42.842Z" fill="white"/>
</g>
<g opacity="0.9">
<path opacity="0.9" d="M78.7511 130.194C80.3559 131.232 80.8155 133.372 79.7781 134.977C78.7416 136.58 76.5994 137.04 74.9966 136.002C73.3931 134.966 72.9327 132.827 73.97 131.222C75.0066 129.619 77.1463 129.157 78.7511 130.194Z" fill="white"/>
</g>
<g opacity="0.9">
<path opacity="0.9" d="M91.1437 111.086C92.7489 112.125 93.2089 114.262 92.1727 115.868C91.1342 117.472 88.9952 117.932 87.3892 116.894C85.7857 115.858 85.3253 113.719 86.3626 112.114C87.3992 110.51 89.5401 110.049 91.1437 111.086Z" fill="white"/>
</g>
<g opacity="0.9">
<path opacity="0.9" d="M103.435 91.8128C105.04 92.8501 105.5 94.9891 104.464 96.5946C103.426 98.1974 101.285 98.6582 99.6805 97.6209C98.0769 96.5843 97.6173 94.4442 98.6539 92.8406C99.6912 91.2358 101.833 90.7758 103.435 91.8128Z" fill="white"/>
</g>
<g opacity="0.9">
<path opacity="0.9" d="M115.831 72.7065C117.434 73.7443 117.894 75.8833 116.857 77.488C115.82 79.0916 113.679 79.5524 112.076 78.5147C110.471 77.4785 110.011 75.3383 111.048 73.7348C112.085 72.13 114.226 71.6692 115.831 72.7065Z" fill="white"/>
</g>
<g opacity="0.9">
<path opacity="0.9" d="M128.182 53.6235C129.787 54.6608 130.247 56.801 129.209 58.4058C128.173 60.0093 126.03 60.4694 124.428 59.4316C122.824 58.395 122.364 56.2561 123.401 54.6513C124.438 53.0477 126.577 52.5861 128.182 53.6235Z" fill="white"/>
</g>
<g opacity="0.9">
<path opacity="0.9" d="M95.4154 140.951C97.0196 141.99 97.4804 144.129 96.4441 145.732C95.4067 147.335 93.2658 147.797 91.662 146.76C90.0583 145.724 89.5978 143.582 90.6341 141.978C91.6704 140.374 93.8124 139.914 95.4154 140.951Z" fill="white"/>
</g>
<g opacity="0.9">
<path opacity="0.9" d="M107.768 121.868C109.37 122.908 109.831 125.045 108.795 126.651C107.758 128.252 105.617 128.715 104.013 127.677C102.409 126.641 101.948 124.5 102.985 122.896C104.022 121.293 106.165 120.832 107.768 121.868Z" fill="white"/>
</g>
<g opacity="0.9">
<path opacity="0.9" d="M120.061 102.596C121.662 103.633 122.124 105.773 121.086 107.378C120.05 108.981 117.908 109.441 116.306 108.404C114.703 107.368 114.241 105.228 115.278 103.623C116.315 102.02 118.457 101.56 120.061 102.596Z" fill="white"/>
</g>
<g opacity="0.9">
<path opacity="0.9" d="M132.452 83.4871C134.057 84.5264 134.517 86.6634 133.48 88.2701C132.443 89.8729 130.304 90.3333 128.698 89.2952C127.095 88.2594 126.634 86.1197 127.671 84.5149C128.708 82.9101 130.848 82.4505 132.452 83.4871Z" fill="white"/>
</g>
<g opacity="0.9">
<path opacity="0.9" d="M144.846 64.3793C146.451 65.4186 146.911 67.5556 145.875 69.1612C144.837 70.7639 142.696 71.2248 141.091 70.1874C139.489 69.1516 139.028 67.0107 140.065 65.4071C141.102 63.8023 143.244 63.3423 144.846 64.3793Z" fill="white"/>
</g>
</g>
</svg>
